<svg xmlns="http://www.w3.org/2000/svg" width="48" height="48" viewBox="0 0 48 48" role="img" aria-labelledby="title">
  <title id="title">GitHub</title>
  <defs>
    <linearGradient id="g" x1="0" y1="0" x2="1" y2="1">
      <stop offset="0" stop-color="#7C3AED"/><stop offset="1" stop-color="#22D3EE"/>
    </linearGradient>
    <filter id="glow" x="-40%" y="-40%" width="180%" height="180%"><feGaussianBlur stdDeviation="2.5" result="b"/><feMerge><feMergeNode in="b"/><feMergeNode in="SourceGraphic"/></feMerge></filter>
  </defs>
  <g>
    <animateTransform attributeName="transform" type="scale" values="1;1.08;1" begin="mouseover" dur=".28s"/>
    <rect x="3" y="3" width="42" height="42" rx="12" fill="#0F172A" stroke="url(#g)"/>
    <path fill="#F8FAFC" filter="url(#glow)" d="M24 10.8c-7.4 0-13.4 6-13.4 13.4 0 5.9 3.8 10.9 9.1 12.7.7.1.9-.3.9-.6v-2.5c-3.7.8-4.5-1.6-4.5-1.6-.6-1.5-1.5-1.9-1.5-1.9-1.2-.8.1-.8.1-.8 1.4.1 2.1 1.4 2.1 1.4 1.2 2.1 3.2 1.5 3.9 1.1.1-.9.5-1.5.9-1.9-3-.3-6.1-1.5-6.1-6.6 0-1.5.5-2.6 1.4-3.6-.1-.3-.6-1.7.1-3.5 0 0 1.1-.4 3.7 1.4 1.1-.3 2.2-.4 3.3-.4s2.2.1 3.3.4c2.6-1.8 3.7-1.4 3.7-1.4.7 1.8.2 3.2.1 3.5.9 1 1.4 2.1 1.4 3.6 0 5.1-3.1 6.3-6.1 6.6.5.4 1 1.3 1 2.7v3.9c0 .4.2.8.9.6 5.3-1.8 9.1-6.8 9.1-12.7 0-7.4-6-13.4-13.4-13.4Z"/>
  </g>
</svg>
